<?xml version="1.0" standalone="no"?>
<!DOCTYPE svg PUBLIC "-//W3C//DTD SVG 20010904//EN"
 "http://www.w3.org/TR/2001/REC-SVG-20010904/DTD/svg10.dtd">
<svg version="1.0" xmlns="http://www.w3.org/2000/svg"
 width="1280.000000pt" height="1280.000000pt" viewBox="0 0 1280.000000 1280.000000"
 preserveAspectRatio="xMidYMid meet">
<metadata>
Created by potrace 1.15, written by Peter Selinger 2001-2017
</metadata>
<g transform="translate(0.000000,1280.000000) scale(0.100000,-0.100000)"
fill="#000000" stroke="none">
<path d="M10010 12786 c-62 -16 -115 -50 -148 -94 -15 -21 -1981 -1990 -4370
-4377 l-4343 -4340 -114 -395 c-153 -533 -524 -1813 -636 -2200 -33 -113 -119
-407 -191 -655 -71 -247 -147 -510 -169 -584 -21 -74 -37 -136 -36 -138 2 -2
98 24 213 58 115 33 425 123 689 199 264 76 674 195 910 263 237 69 729 212
1095 317 366 105 757 218 870 251 l205 59 1495 1493 c4550 4542 7250 7243
7250 7250 0 5 9 21 20 37 11 15 26 54 35 86 74 283 -163 798 -634 1376 -136
168 -545 582 -711 720 -591 491 -1144 752 -1430 674z"/>
</g>
</svg>
